<svg xmlns="http://www.w3.org/2000/svg" viewBox="0 0 128 128" width="128" height="128" shape-rendering="crispEdges">
  <rect width="128" height="128" rx="22" fill="#4A6CF7"/>
  <!-- Corner brackets: integer-width rects for crisp edges -->
  <g fill="#FFF" opacity="0.5">
    <!-- Top-left -->
    <rect x="16" y="16" width="20" height="3"/><rect x="16" y="16" width="3" height="20"/>
    <!-- Top-right -->
    <rect x="92" y="16" width="20" height="3"/><rect x="109" y="16" width="3" height="20"/>
    <!-- Bottom-left -->
    <rect x="16" y="109" width="20" height="3"/><rect x="16" y="92" width="3" height="20"/>
    <!-- Bottom-right -->
    <rect x="92" y="109" width="20" height="3"/><rect x="109" y="92" width="3" height="20"/>
  </g>
  <g fill="#FFF">
    <rect x="28" y="22" width="8" height="8"/><rect x="36" y="22" width="8" height="8"/>
    <rect x="28" y="30" width="8" height="8"/><rect x="36" y="30" width="8" height="8"/>
    <rect x="28" y="38" width="8" height="8"/><rect x="36" y="38" width="8" height="8"/>
    <rect x="28" y="46" width="8" height="8"/><rect x="36" y="46" width="8" height="8"/>
    <rect x="28" y="54" width="8" height="8"/><rect x="36" y="54" width="8" height="8"/>
    <rect x="28" y="62" width="8" height="8"/><rect x="36" y="62" width="8" height="8"/>
    <rect x="28" y="70" width="8" height="8"/><rect x="36" y="70" width="8" height="8"/>
    <rect x="28" y="78" width="8" height="8"/><rect x="36" y="78" width="8" height="8"/>
    <rect x="28" y="86" width="8" height="8"/><rect x="36" y="86" width="8" height="8"/>
    <rect x="28" y="94" width="8" height="8"/><rect x="36" y="94" width="8" height="8"/>
    <rect x="44" y="22" width="8" height="8"/><rect x="52" y="22" width="8" height="8"/>
    <rect x="60" y="22" width="8" height="8"/><rect x="68" y="22" width="8" height="8"/>
    <rect x="76" y="22" width="8" height="8"/>
    <rect x="76" y="30" width="8" height="8"/><rect x="84" y="30" width="8" height="8"/>
    <rect x="84" y="38" width="8" height="8"/>
    <rect x="84" y="46" width="8" height="8"/>
    <rect x="76" y="46" width="8" height="8"/><rect x="76" y="54" width="8" height="8"/>
    <rect x="44" y="54" width="8" height="8"/><rect x="52" y="54" width="8" height="8"/>
    <rect x="60" y="54" width="8" height="8"/><rect x="68" y="54" width="8" height="8"/>
    <rect x="60" y="62" width="8" height="8"/><rect x="68" y="62" width="8" height="8"/>
    <rect x="68" y="70" width="8" height="8"/><rect x="76" y="70" width="8" height="8"/>
    <rect x="76" y="78" width="8" height="8"/><rect x="84" y="78" width="8" height="8"/>
    <rect x="84" y="86" width="8" height="8"/><rect x="92" y="86" width="8" height="8"/>
    <rect x="84" y="94" width="8" height="8"/><rect x="92" y="94" width="8" height="8"/>
  </g>
</svg>